<svg xmlns="http://www.w3.org/2000/svg" width="571.69" height="164.33" viewBox="0 0 571.69 164.33"><path d="M2.07,68.72l7.64-2.9V16L2.07,14.61V10.38H51.54l1,18H48.8L37.93,15.11H24.23v23h20.5v5.81H24.23V67.23H40.75l11.7-14.77h3.82L53.86,72.62H2.07Z" transform="translate(-1.25 -8.89)"/><path d="M65.4,53.12h6.39c0,10.13,7.72,15.44,14.19,15.44,4.57,0,8.55-2.66,8.55-8.22,0-6.89-6-9.54-13.69-13.44C71.63,42.25,64.66,38,64.66,27.48c0-13.12,10.87-18.59,22.4-18.59a36.55,36.55,0,0,1,19.84,5.72l-4.15,12.12h-6c-.49-8.3-6-12-11-12-4.32,0-8.14,2.82-8.14,7.8,0,6.8,6.89,9.79,14.28,13.19,8.79,4.07,16.6,8.22,16.6,19.26,0,13.53-11.62,19.25-23.66,19.25-7.72,0-15.6-2.32-21.08-6.47Z" transform="translate(-1.25 -8.89)"/><path d="M173.13,46.81l-4.4.75v19a39.09,39.09,0,0,1-22.9,7.63c-16.19,0-32-11-32-32.28,0-22.08,17-33,33.86-33a39.09,39.09,0,0,1,21.83,6.64l-6,15.18h-5.15a10.54,10.54,0,0,0,.08-1.41c0-9.71-6.64-14.77-14.1-14.77-11.54,0-17.35,11.54-17.35,23.57,0,13.61,7.47,27.8,21.83,27.8A16.42,16.42,0,0,0,155,64.82V48.72H144.75V42.58h28.38Z" transform="translate(-1.25 -8.89)"/><path d="M187.08,25.65a7.24,7.24,0,0,1,7.47,7.47,7.39,7.39,0,1,1-14.77,0A7.2,7.2,0,0,1,187.08,25.65Zm0,32.45a7.47,7.47,0,1,1-7.3,7.47A7.24,7.24,0,0,1,187.08,58.1Z" transform="translate(-1.25 -8.89)"/><path d="M223,57.69h5.31a11,11,0,0,0,10.79,10.87c3.24,0,5.73-2.16,5.73-5.4,0-4.23-4.82-5.64-10-7.55-6.06-2.24-12.54-5-12.54-13.44,0-9.55,8.14-13.7,16.77-13.7a28.91,28.91,0,0,1,14.36,3.74l-2,8.88h-5c-.83-5.23-4.24-7.31-7.56-7.31-2.65,0-5.39,1.66-5.39,5.07,0,4.06,3.9,5.64,8.55,7.22,6.39,2.16,14.11,4.4,14.11,13.44,0,9.46-8.47,14.11-18.1,14.11a33.88,33.88,0,0,1-16.18-4Z" transform="translate(-1.25 -8.89)"/><path d="M303.53,63.83l5.89,1.08v3.81l-16.85,4.9V64.16l-9.46,8.63a8.74,8.74,0,0,1-3.9.83c-5.56,0-13.28-3.9-13.28-15.1V35.44l-6.39-2.07V29.3h18.84V55.69c0,5.4,2.74,7.81,5.89,7.81a9,9,0,0,0,6.81-3.82V35.44l-6.31-2.07V29.3h18.76Z" transform="translate(-1.25 -8.89)"/><path d="M312.74,89.14l6.39-2.41v-49l-6.22-2.91V32l17.18-3.57v8.72L340.71,29a12.58,12.58,0,0,1,3.65-.5c10.46,0,15.94,9.46,15.94,20.25C360.3,65.24,349.17,73,338.63,73a20.38,20.38,0,0,1-7.05-1.25v16l8.22,1.41V93H312.74ZM348,53.45c0-7.63-3.07-15.1-9.54-15.1a10.14,10.14,0,0,0-6.89,2.9V64.91a10.67,10.67,0,0,0,6.81,2.82C343.45,67.73,348,63.08,348,53.45Z" transform="translate(-1.25 -8.89)"/><path d="M404.7,59.76c-2.82,9.38-10.37,13.86-18.09,13.86-10.13,0-20.5-7.72-20.5-22.32,0-15.19,10.79-22.83,20.83-22.83,8.8,0,17.43,5.9,17.43,18.51A26.49,26.49,0,0,1,404,51.3H376.57c1,8.63,6.88,12.28,13,12.28,4.64,0,9.46-2.41,12.78-7.39ZM392.83,45.32c.92-8-2.65-11.45-6.72-11.45s-8.8,3.15-9.54,11.45Z" transform="translate(-1.25 -8.89)"/><path d="M409.68,68.72l6.39-2.4V37.85L409.85,35V32.21L427,28.47V39.35l10-10.46a21.82,21.82,0,0,1,9.38,2l-3.24,12.37a12.7,12.7,0,0,0-7-2.16,12.93,12.93,0,0,0-7.64,2.49V67.31l6.39,1.08v4.23H409.68Z" transform="translate(-1.25 -8.89)"/><path d="M467,72.79a17.71,17.71,0,0,1-5.73.83c-8.46,0-12.78-5.64-12.78-12.12,0-6.88,5-11.12,12.62-13.11l12-3.15v-5c0-4.4-3-6.39-6.06-6.39-3.65,0-7.55,3-7.55,8.55a9.4,9.4,0,0,0,.08,1.41h-5.47L450.27,34a35.64,35.64,0,0,1,18.92-5.56c8.72,0,16,3.74,16,13.53V61.34c0,2.82,1.33,4,3.07,4a3.38,3.38,0,0,0,2.9-1.49l1.5,4.23a9.34,9.34,0,0,1-8.63,5.56c-3.9,0-8.38-2.24-8.47-8.71Zm6.14-23.15-6.39,1.9c-4.81,1.42-7.3,4.57-7.3,7.72,0,2.74,1.91,5.4,6,5.4A10,10,0,0,0,473.09,61Z" transform="translate(-1.25 -8.89)"/><path d="M495.59,68.72l6.39-2.4V37.85L495.75,35V32.21l17.18-3.74V39.35l10-10.46a21.82,21.82,0,0,1,9.38,2L529,43.25a12.65,12.65,0,0,0-7-2.16,12.88,12.88,0,0,0-7.63,2.49V67.31l6.39,1.08v4.23H495.59Z" transform="translate(-1.25 -8.89)"/><path d="M572.94,59.76c-2.82,9.38-10.37,13.86-18.09,13.86-10.13,0-20.5-7.72-20.5-22.32,0-15.19,10.79-22.83,20.83-22.83,8.8,0,17.43,5.9,17.43,18.51a27.66,27.66,0,0,1-.33,4.32H544.81c1,8.63,6.88,12.28,13,12.28,4.65,0,9.47-2.41,12.79-7.39ZM561.07,45.32c.91-8-2.65-11.45-6.72-11.45s-8.8,3.15-9.54,11.45Z" transform="translate(-1.25 -8.89)"/><path d="M1.25,168.32l6.39-2.4V118.7l-6.23-2.91v-2.74L20.08,109v57.92L26.47,168v4.24H1.25Z" transform="translate(-1.25 -8.89)"/><path d="M68.8,159.36c-2.82,9.38-10.37,13.86-18.09,13.86-10.12,0-20.5-7.72-20.5-22.32,0-15.19,10.79-22.83,20.83-22.83,8.8,0,17.43,5.9,17.43,18.51a26.49,26.49,0,0,1-.33,4.32H40.67c1,8.63,6.89,12.28,13,12.28,4.65,0,9.46-2.41,12.78-7.39ZM56.94,144.92c.91-8-2.66-11.45-6.73-11.45s-8.79,3.15-9.54,11.45Z" transform="translate(-1.25 -8.89)"/><path d="M95.37,118.7l-6.23-2.91v-2.74L107.82,109v26.64l9.13-7.06a12.53,12.53,0,0,1,3.65-.5c10.45,0,15.93,10,15.93,20.75,0,15.52-11.2,24.4-24.65,24.4a34.65,34.65,0,0,1-16.51-4.4Zm18.09,49.46c5.73,0,10.79-4.9,10.79-14.61,0-7.63-3.07-15.6-9.55-15.6a9.7,9.7,0,0,0-6.88,3.07v25.56A11.15,11.15,0,0,0,113.46,168.16Z" transform="translate(-1.25 -8.89)"/><path d="M160,172.39a17.68,17.68,0,0,1-5.72.83c-8.47,0-12.78-5.64-12.78-12.12,0-6.88,5-11.12,12.61-13.11l12-3.15v-5c0-4.4-3-6.39-6-6.39-3.66,0-7.56,3-7.56,8.55a8.37,8.37,0,0,0,.09,1.41h-5.48l-3.82-9.8a35.64,35.64,0,0,1,18.92-5.56c8.72,0,16,3.74,16,13.53v19.34c0,2.82,1.33,4,3.07,4a3.41,3.41,0,0,0,2.91-1.49l1.49,4.23a9.34,9.34,0,0,1-8.63,5.56c-3.9,0-8.38-2.24-8.47-8.71Zm6.14-23.15-6.39,1.91c-4.81,1.41-7.3,4.56-7.3,7.71,0,2.74,1.91,5.4,6,5.4a10,10,0,0,0,7.71-3.65Z" transform="translate(-1.25 -8.89)"/><path d="M188.66,168.32l6.39-2.4V137.45l-6.22-2.9v-2.74L206,128.07V139l10-10.46a21.82,21.82,0,0,1,9.38,2l-3.24,12.37a12.73,12.73,0,0,0-7-2.16,12.9,12.9,0,0,0-7.63,2.49v23.73l6.39,1.08v4.24H188.66Z" transform="translate(-1.25 -8.89)"/><path d="M227.83,168.32l6.39-2.4V137.45l-6.22-2.9v-2.74l17.18-3.74V139l10-10.46a21.82,21.82,0,0,1,9.38,2l-3.24,12.37a12.78,12.78,0,0,0-7-2.16,12.93,12.93,0,0,0-7.64,2.49v23.73l6.39,1.08v4.24H227.83Z" transform="translate(-1.25 -8.89)"/><path d="M267,168.32l6.39-2.4V137.78l-6.23-2.9v-2.74l18.68-4.07v38.84l6.39,1.08v4.24H267Zm3.57-53.77c0-4.9,3.4-8.14,8.3-8.14s8.3,3.24,8.3,8.14-3.41,8.13-8.3,8.13S270.58,119.44,270.58,114.55Z" transform="translate(-1.25 -8.89)"/><path d="M335.4,159.36c-2.83,9.38-10.38,13.86-18.1,13.86-10.12,0-20.5-7.72-20.5-22.32,0-15.19,10.79-22.83,20.84-22.83,8.79,0,17.42,5.9,17.42,18.51a26.49,26.49,0,0,1-.33,4.32H307.26c1,8.63,6.89,12.28,13,12.28,4.65,0,9.46-2.41,12.78-7.39Zm-11.87-14.44c.91-8-2.66-11.45-6.72-11.45s-8.8,3.15-9.55,11.45Z" transform="translate(-1.25 -8.89)"/><path d="M340.38,168.32l6.39-2.4V137.45l-6.22-2.9v-2.74l17.17-3.74V139l10-10.46c3,0,7,.66,9.38,2l-3.23,12.37a12.65,12.65,0,0,0-14.61.33v23.73l6.39,1.08v4.24H340.38Z" transform="translate(-1.25 -8.89)"/><path d="M417.73,159.36c-2.82,9.38-10.37,13.86-18.09,13.86-10.13,0-20.5-7.72-20.5-22.32,0-15.19,10.79-22.83,20.83-22.83,8.8,0,17.43,5.9,17.43,18.51a26.49,26.49,0,0,1-.33,4.32H389.6c1,8.63,6.88,12.28,13,12.28,4.64,0,9.46-2.41,12.78-7.39Zm-11.87-14.44c.92-8-2.65-11.45-6.72-11.45s-8.8,3.15-9.54,11.45Z" transform="translate(-1.25 -8.89)"/><path d="M431.68,157.7a7.47,7.47,0,1,1-7.31,7.47A7.25,7.25,0,0,1,431.68,157.7Z" transform="translate(-1.25 -8.89)"/></svg>