<svg xmlns="http://www.w3.org/2000/svg" width="509.36" height="185.83" viewBox="0 0 509.36 185.83"><path d="M44.65,29.3c0-9.79-6.06-14.77-12.7-14.77-8.13,0-17.18,7.64-17.18,22.91,0,16,10,24.73,20.42,24.73,7.55,0,15-4.57,19.17-13l2.82,3.24C54,67.06,42.74,74.2,31.37,74.2,17.1,74.2,2.49,63.08,2.49,41.83c0-22.24,16-32.94,32.45-32.94A35.89,35.89,0,0,1,56.1,15.53L49.63,31.88H44.48C44.57,31,44.65,30.05,44.65,29.3Z" transform="translate(-2.49 -6.81)"/><path d="M107.81,50.8c0,12.78-8.3,22.82-22.49,22.82S63.41,63.41,63.41,51.13c0-12.7,8.22-22.66,22.49-22.66S107.81,38.43,107.81,50.8ZM93.7,52.29C93.7,40.59,90.8,33,85.07,33c-5.06,0-7.55,6-7.55,16.77,0,11.7,2.9,19.42,8.63,19.42C91.21,69.14,93.7,63.08,93.7,52.29Z" transform="translate(-2.49 -6.81)"/><path d="M114.29,57.69h5.31a11,11,0,0,0,10.79,10.87c3.24,0,5.73-2.16,5.73-5.4,0-4.23-4.82-5.64-10-7.55-6.06-2.24-12.54-5-12.54-13.44,0-9.55,8.14-13.7,16.77-13.7a28.91,28.91,0,0,1,14.36,3.74l-2,8.88h-5c-.83-5.23-4.24-7.31-7.56-7.31-2.65,0-5.39,1.66-5.39,5.07,0,4.06,3.9,5.64,8.55,7.22,6.39,2.16,14.11,4.4,14.11,13.44,0,9.46-8.47,14.11-18.1,14.11a33.88,33.88,0,0,1-16.18-4Z" transform="translate(-2.49 -6.81)"/><path d="M170.06,58.68c0,5.81,3.49,7.39,7.39,7.39a17.83,17.83,0,0,0,4.73-.67v5.23a21.54,21.54,0,0,1-10.79,3c-7.22,0-13.78-3.9-13.78-13.61V34.45h-8.46v-4l8.46-2.57v-8.3L170.06,17V29.3h12.12v5.56H170.06Z" transform="translate(-2.49 -6.81)"/><path d="M185.09,68.72l6.39-2.4V37.85L185.25,35V32.21l17.18-3.74V39.35l10-10.46a21.82,21.82,0,0,1,9.38,2l-3.24,12.37a12.65,12.65,0,0,0-7-2.16,12.88,12.88,0,0,0-7.63,2.49V67.31l6.39,1.08v4.23H185.09Z" transform="translate(-2.49 -6.81)"/><path d="M267,63.83l5.9,1.08v3.81l-16.85,4.9V64.16l-9.46,8.63a8.77,8.77,0,0,1-3.9.83c-5.56,0-13.28-3.9-13.28-15.1V35.44L223,33.37V29.3h18.84V55.69c0,5.4,2.74,7.81,5.89,7.81a8.93,8.93,0,0,0,6.8-3.82V35.44l-6.3-2.07V29.3H267Z" transform="translate(-2.49 -6.81)"/><path d="M275.8,68.72l6.39-2.4V38.18L276,35.28V32.54l18.67-4.07V67.31L301,68.39v4.23H275.8ZM279.37,15c0-4.9,3.41-8.14,8.3-8.14S296,10.05,296,15s-3.4,8.13-8.3,8.13S279.37,19.84,279.37,15Z" transform="translate(-2.49 -6.81)"/><path d="M305.19,68.72l6.39-2.4V37.85L305.35,35V32.21l17.18-3.74V39.35l10-10.46a21.82,21.82,0,0,1,9.38,2l-3.24,12.37a12.67,12.67,0,0,0-7-2.16A12.93,12.93,0,0,0,324,43.58V67.31l6.4,1.08v4.23H305.19Z" transform="translate(-2.49 -6.81)"/><path d="M382.54,59.76c-2.83,9.38-10.38,13.86-18.1,13.86C354.32,73.62,344,65.9,344,51.3c0-15.19,10.78-22.83,20.83-22.83,8.79,0,17.42,5.9,17.42,18.51a26.49,26.49,0,0,1-.33,4.32H354.4c1,8.63,6.89,12.28,13,12.28,4.65,0,9.46-2.41,12.78-7.39ZM370.67,45.32c.91-8-2.66-11.45-6.72-11.45s-8.8,3.15-9.55,11.45Z" transform="translate(-2.49 -6.81)"/><path d="M46.89,150.4c0,12.78-8.3,22.82-22.49,22.82S2.49,163,2.49,150.73c0-12.7,8.22-22.66,22.49-22.66S46.89,138,46.89,150.4Zm-14.11,1.49c0-11.7-2.9-19.34-8.63-19.34-5.06,0-7.55,6-7.55,16.77,0,11.7,2.9,19.42,8.63,19.42C30.29,168.74,32.78,162.68,32.78,151.89Z" transform="translate(-2.49 -6.81)"/><path d="M51.87,188.74l6.39-2.41v-49L52,134.38v-2.74l17.18-3.57v8.72l10.62-8.22a12.63,12.63,0,0,1,3.65-.5c10.46,0,15.94,9.46,15.94,20.25,0,16.52-11.12,24.24-21.66,24.24a20.39,20.39,0,0,1-7.06-1.25v16l8.22,1.41v3.9H51.87Zm35.28-35.69c0-7.63-3.08-15.1-9.55-15.1a10.14,10.14,0,0,0-6.89,2.9v23.66a10.67,10.67,0,0,0,6.81,2.82C82.58,167.33,87.15,162.68,87.15,153.05Z" transform="translate(-2.49 -6.81)"/><path d="M105.24,188.74l6.39-2.41v-49l-6.22-2.91v-2.74l17.18-3.57v8.72l10.62-8.22a12.58,12.58,0,0,1,3.65-.5c10.46,0,15.94,9.46,15.94,20.25,0,16.52-11.12,24.24-21.66,24.24a20.39,20.39,0,0,1-7.06-1.25v16l8.22,1.41v3.9H105.24Zm35.27-35.69c0-7.63-3.07-15.1-9.54-15.1a10.14,10.14,0,0,0-6.89,2.9v23.66a10.67,10.67,0,0,0,6.81,2.82C136,167.33,140.51,162.68,140.51,153.05Z" transform="translate(-2.49 -6.81)"/><path d="M203,150.4c0,12.78-8.3,22.82-22.49,22.82S158.61,163,158.61,150.73c0-12.7,8.22-22.66,22.49-22.66S203,138,203,150.4Zm-14.11,1.49c0-11.7-2.9-19.34-8.63-19.34-5.06,0-7.55,6-7.55,16.77,0,11.7,2.9,19.42,8.63,19.42C186.41,168.74,188.9,162.68,188.9,151.89Z" transform="translate(-2.49 -6.81)"/><path d="M207.58,168.32l6.39-2.4V137.45l-6.22-2.9v-2.74l17.17-3.74V139l10-10.46a21.82,21.82,0,0,1,9.38,2L241,142.85a12.73,12.73,0,0,0-7-2.16,12.9,12.9,0,0,0-7.63,2.49v23.73l6.39,1.08v4.24H207.58Z" transform="translate(-2.49 -6.81)"/><path d="M264.76,158.28c0,5.81,3.49,7.39,7.39,7.39a17.83,17.83,0,0,0,4.73-.67v5.23a21.54,21.54,0,0,1-10.79,3c-7.22,0-13.78-3.9-13.78-13.61V134.05h-8.46v-4l8.46-2.58v-8.3l12.45-2.57V128.9h12.12v5.56H264.76Z" transform="translate(-2.49 -6.81)"/><path d="M322.53,163.43l5.89,1.08v3.81l-16.85,4.9v-9.46l-9.46,8.63a8.71,8.71,0,0,1-3.9.83c-5.56,0-13.28-3.9-13.28-15.1V135L278.54,133V128.9h18.84v26.39c0,5.4,2.74,7.81,5.89,7.81a8.93,8.93,0,0,0,6.81-3.82V135L303.77,133V128.9h18.76Z" transform="translate(-2.49 -6.81)"/><path d="M330.5,168.32l6.39-2.4V137.45l-6.22-2.9v-2.74l17.17-3.74v9.46l9.47-8.63a19,19,0,0,1,5.39-.83c6.64,0,13.44,4,13.44,14.61v24.23l6.4,1.08v4.24H358.38v-4.32l5.32-2V145.5c0-5.64-2.58-8.05-5.81-8.05-2.74,0-5.9,1.66-8.55,4.4v25.06l5.31.92v4.4H330.5Z" transform="translate(-2.49 -6.81)"/><path d="M385.45,168.32l6.38-2.4V137.78l-6.22-2.9v-2.74l18.67-4.07v38.84l6.39,1.08v4.24H385.45ZM389,114.55c0-4.9,3.41-8.14,8.3-8.14s8.3,3.24,8.3,8.14-3.4,8.13-8.3,8.13S389,119.44,389,114.55Z" transform="translate(-2.49 -6.81)"/><path d="M432.83,158.28c0,5.81,3.49,7.39,7.39,7.39A17.83,17.83,0,0,0,445,165v5.23a21.51,21.51,0,0,1-10.79,3c-7.22,0-13.77-3.9-13.77-13.61V134.05h-8.47v-4l8.47-2.58v-8.3l12.44-2.57V128.9H445v5.56H432.83Z" transform="translate(-2.49 -6.81)"/><path d="M466.78,172.39a17.71,17.71,0,0,1-5.73.83c-8.46,0-12.78-5.64-12.78-12.12,0-6.88,5-11.12,12.62-13.11l12-3.15v-5c0-4.4-3-6.39-6.06-6.39-3.65,0-7.55,3-7.55,8.55a9.4,9.4,0,0,0,.08,1.41h-5.47l-3.82-9.8A35.64,35.64,0,0,1,469,128.07c8.72,0,16,3.74,16,13.53v19.34c0,2.82,1.33,4,3.07,4a3.38,3.38,0,0,0,2.9-1.49l1.5,4.23a9.34,9.34,0,0,1-8.63,5.56c-3.9,0-8.38-2.24-8.47-8.71Zm-1.91-64.57,9.38,15.44h-6.06l-13.53-11Zm8.05,41.42-6.39,1.91c-4.81,1.41-7.3,4.56-7.3,7.71,0,2.74,1.91,5.4,6,5.4a10,10,0,0,0,7.72-3.65Z" transform="translate(-2.49 -6.81)"/><path d="M504.38,157.7a7.47,7.47,0,1,1-7.3,7.47A7.24,7.24,0,0,1,504.38,157.7Z" transform="translate(-2.49 -6.81)"/></svg>